# xmcd
#
# Track frame offsets:
#	150
#	13442
#	25976
#	41279
#	54395
#	67578
#	79275
#	91162
#	104856
#	115693
#	127289
#	140955
#	151367
#	162274
#	175007
#	186696
#	197517
#	212208
#	224949
#	235393
#
# Disc length: 3278 seconds
#
# Revision: 1
# Processed by: cddbd v1.5.2PL0 Copyright (c) Steve Scherf et al.
# Submitted via: audiograbber 1.83.01
#
DISCID=320ccc14
DTITLE=Various Artist - Country and Western - 200 No.1 - Hits (1944-1962) - CD1
DYEAR=2016
DGENRE=Country
TTITLE0=Carl Butler and Pearl - Don't Let Me Cross Over (1962)
TTITLE1=Hank Snow - I've Been Everywhere (1962)
TTITLE2=Bill Anderson - Mama Sang a Song (1962)
TTITLE3=Marty Robbins - Devil Woman (1962)
TTITLE4=Claude King - Wolverton Mountain (1962)
TTITLE5=George Jones - She Thinks I Still Care (1962)
TTITLE6=Billy Walker - Charlie's Shoes (1962)
TTITLE7=Patsy Cline - She's Got You (1962)
TTITLE8=Sheb Wooley - That's My Pa (1962)
TTITLE9=Porter Wagoner - Misery Loves Company (1962)
TTITLE10=Jimmy Dean - Big Bad John (1961)
TTITLE11=Leroy Van Dyke - Walk On By (1961)
TTITLE12=George Jones - Tender Years (1961)
TTITLE13=Patsy Cline - I Fall Two Pieces (1961)
TTITLE14=Kitty Wells - Heartbreak U. S. A. (1961)
TTITLE15=Faron Young - Hello Walls (1961)
TTITLE16=Marty Robbins - Don't Worry (1961)
TTITLE17=Johnny Horton - North To Alaska (1961)
TTITLE18=Ferlin Husky - Wings of a Dove (1960)
TTITLE19=Cowboy Copas - Alabam (1960)
EXTD=
EXTT0=
EXTT1=
EXTT2=
EXTT3=
EXTT4=
EXTT5=
EXTT6=
EXTT7=
EXTT8=
EXTT9=
EXTT10=
EXTT11=
EXTT12=
EXTT13=
EXTT14=
EXTT15=
EXTT16=
EXTT17=
EXTT18=
EXTT19=
PLAYORDER=
